<svg xmlns="http://www.w3.org/2000/svg" width="7.062" height="12.34" viewBox="0 0 7.062 12.34">
  <defs>
    <style>
      .cls-1 {
        fill: #fff;
        fill-rule: evenodd;
      }
    </style>
  </defs>
  <path id="arrow-icon.svg" class="cls-1" d="M881.064,2876.72l-4.621,4.62,4.682,4.69h0a0.855,0.855,0,0,1,.248.61,0.885,0.885,0,0,1-.882.88,0.854,0.854,0,0,1-.613-0.25h0l-5.292-5.29h0a0.867,0.867,0,0,1-.269-0.63v-0.01h0a0.867,0.867,0,0,1,.269-0.63h0l5.292-5.29h0a0.894,0.894,0,0,1,.611-0.25A0.881,0.881,0,0,1,881.064,2876.72Z" transform="translate(-874.313 -2875.19)"/>
</svg>
