<svg xmlns="http://www.w3.org/2000/svg" width="7.063" height="12.34" viewBox="0 0 7.063 12.34">
  <defs>
    <style>
      .cls-1 {
        fill: #fff;
        fill-rule: evenodd;
      }
    </style>
  </defs>
  <path id="arrow2-icon.svg" class="cls-1" d="M905.564,2876.72l4.621,4.62-4.681,4.69h0a0.854,0.854,0,0,0-.247.61,0.885,0.885,0,0,0,.882.88,0.852,0.852,0,0,0,.612-0.25h0l5.292-5.29h0a0.868,0.868,0,0,0,.27-0.63v-0.01h0a0.868,0.868,0,0,0-.27-0.63h0l-5.292-5.29h0a0.878,0.878,0,0,0-1.492.63A0.876,0.876,0,0,0,905.564,2876.72Z" transform="translate(-905.25 -2875.19)"/>
</svg>
