<svg xmlns="http://www.w3.org/2000/svg" width="14" height="13" viewBox="0 0 14 13">
  <defs>
    <style>
      .cls-1 {
        fill-rule: evenodd;
      }
    </style>
  </defs>
  <path id="Cart-icon.svg" class="cls-1" d="M1289.94,101.862h0l-1.97,5.1h0a0.649,0.649,0,0,1-.55.448h0l-5.67.44,0.33,1.091h6.17a1.547,1.547,0,1,1-1.31,1.529h-6.13a1.326,1.326,0,1,1-1.31-1.529h1.19l-2.53-8.412h-1.5a0.773,0.773,0,0,1,0-1.529h1.96a0.671,0.671,0,0,1,.62.513h0l0.39,1.272h9.71a0.714,0.714,0,0,1,.66.765A0.808,0.808,0,0,1,1289.94,101.862Zm-9.85.451,1.21,4.039,5.64-.438,1.39-3.6h-8.24Z" transform="translate(-1276 -99)"/>
</svg>
