<svg xmlns="http://www.w3.org/2000/svg" width="27.04" height="22.25" viewBox="0 0 27.04 22.25">
  <defs>
    <style>
      .cls-1 {
        fill: #1275b9;
        fill-rule: evenodd;
      }
    </style>
  </defs>
  <path id="Dashboard.svg" class="cls-1" d="M1098.7,738.654s-0.98,5.7-2.02,6.94a2.919,2.919,0,0,1-4.13.333,2.965,2.965,0,0,1-.33-4.151C1093.27,740.538,1098.7,738.654,1098.7,738.654Zm6.2,12.51h-20.1a0.994,0.994,0,0,1-.79-0.393,13.521,13.521,0,1,1,21.68,0A0.994,0.994,0,0,1,1104.9,751.164Zm-19.59-2.017h19.08a11.79,11.79,0,0,0,1.98-6.586,11.516,11.516,0,1,0-23.03.025A11.737,11.737,0,0,0,1085.31,749.147Zm1.61-6.346a1.007,1.007,0,0,1-1.01-1.008,8.941,8.941,0,1,1,17.88-.028,1,1,0,1,1-2,0,6.936,6.936,0,1,0-13.87.028A1,1,0,0,1,1086.92,742.8Z" transform="translate(-1081.34 -728.906)"/>
</svg>
