<svg xmlns="http://www.w3.org/2000/svg" width="16" height="13.75" viewBox="0 0 16 13.75">
  <defs>
    <style>
      .cls-1 {
        fill: #393939;
        fill-rule: evenodd;
      }
    </style>
  </defs>
  <path id="google_plus-icon.svg" data-name="google plus-icon.svg" class="cls-1" d="M1322.5,18.826v2.44h-1v-2.44H1319v-1h2.5v-2.44h1v2.44h2.5v1h-2.5Zm-6.91-2.471a2.569,2.569,0,0,1,1.4,2.331,2.7,2.7,0,0,1-1.24,2.1,1.363,1.363,0,0,0-.81,1.186,2.716,2.716,0,0,0,1.11,1.289,2.845,2.845,0,0,1,1.45,2.693c0,1.5-1.45,3.17-4.12,3.17-2.34,0-4.38-1.122-4.38-2.618,0-1.52,1.87-2.987,4.21-2.987,0.25,0,.49-0.01.73-0.01a1.61,1.61,0,0,1-.57-1.151,1.772,1.772,0,0,1,.21-0.785c-0.13.009-.26-0.012-0.39-0.012a3.054,3.054,0,0,1-3.21-3.058c0-1.631,1.78-3.131,3.67-3.131h4.22l-0.95.982h-1.33Zm-1.93,7.554c-1.62-.017-3.08.97-3.08,2.155,0,1.209,1.17,2.094,2.79,2.094,2.28,0,3.08-.822,3.08-2.032a1.544,1.544,0,0,0-.06-0.428c-0.17-.684-0.81-1.023-1.68-1.624A3.622,3.622,0,0,0,1313.66,23.909Zm1.82-5.2a2.823,2.823,0,0,0-2.36-2.559c-1.09-.032-1.82,1.041-1.63,2.443a2.823,2.823,0,0,0,2.31,2.6C1314.89,21.219,1315.66,20.108,1315.48,18.705Z" transform="translate(-1309 -15.375)"/>
</svg>
