<svg xmlns="http://www.w3.org/2000/svg" width="13" height="9.938" viewBox="0 0 13 9.938">
  <defs>
    <style>
      .cls-1 {
        fill-rule: evenodd;
      }
    </style>
  </defs>
  <path id="icon-mail.svg" class="cls-1" d="M235.506,18.065H225.5a1.464,1.464,0,0,0-1.5,1.428v7.075a1.464,1.464,0,0,0,1.5,1.428h10.011a1.464,1.464,0,0,0,1.5-1.428V19.492A1.464,1.464,0,0,0,235.506,18.065Zm0.455,8.5a0.446,0.446,0,0,1-.455.435H225.5a0.446,0.446,0,0,1-.455-0.435V19.492a0.446,0.446,0,0,1,.455-0.434h10.011a0.446,0.446,0,0,1,.455.434v7.075Zm-3.286-3.625,2.377-2.27a0.481,0.481,0,0,0,0-.7,0.537,0.537,0,0,0-.735,0L230.5,23.614l-3.738-3.569a0.538,0.538,0,0,0-.736,0,0.481,0.481,0,0,0,0,.7l2.367,2.259-2.325,2.219a0.481,0.481,0,0,0,0,.7,0.536,0.536,0,0,0,.735,0l2.325-2.219,1.005,0.959a0.537,0.537,0,0,0,.735,0l1.071-1.023,2.391,2.283a0.537,0.537,0,0,0,.736,0,0.481,0.481,0,0,0,0-.7Z" transform="translate(-224 -18.063)"/>
</svg>
