<svg xmlns="http://www.w3.org/2000/svg" width="8" height="14" viewBox="0 0 8 14">
  <defs>
    <style>
      .cls-1 {
        fill-rule: evenodd;
      }
    </style>
  </defs>
  <path id="phone-icon.svg" class="cls-1" d="M407.289,30h-2.57A2.625,2.625,0,0,1,402,27.485V18.513A2.625,2.625,0,0,1,404.719,16h2.57a2.625,2.625,0,0,1,2.718,2.512v8.971A2.625,2.625,0,0,1,407.289,30Zm-2.57-12.93a1.53,1.53,0,0,0-1.566,1.446v8.971a1.53,1.53,0,0,0,1.566,1.446h2.57a1.53,1.53,0,0,0,1.565-1.446V18.513a1.53,1.53,0,0,0-1.565-1.446h-2.57ZM406,28.476a0.534,0.534,0,1,1,.576-0.533A0.557,0.557,0,0,1,406,28.476Zm0.576-9.74h-1.153a0.535,0.535,0,1,1,0-1.066h1.153A0.535,0.535,0,1,1,406.58,18.736Z" transform="translate(-402 -16)"/>
</svg>
