<svg xmlns="http://www.w3.org/2000/svg" width="31.5" height="36" viewBox="0 0 31.5 36">
  <defs>
    <style>
      .cls-1 {
        fill: #fff;
        fill-rule: evenodd;
        opacity: 0.85;
      }
    </style>
  </defs>
  <path id="play-icon.svg" class="cls-1" d="M1186.75,2802a3.386,3.386,0,0,1-1.66,2.91h0l-24.71,14.6c-0.01,0-.02.01-0.03,0.01l-0.01.01h0a3.325,3.325,0,0,1-1.71.47,3.376,3.376,0,0,1-3.38-3.38h0v-29.25h0a3.374,3.374,0,0,1,3.38-3.37,3.325,3.325,0,0,1,1.71.47h0l0.01,0.01c0.01,0,.02.01,0.03,0.01l24.71,14.6h0A3.386,3.386,0,0,1,1186.75,2802Z" transform="translate(-1155.25 -2784)"/>
</svg>
