<svg xmlns="http://www.w3.org/2000/svg" width="99" height="99" viewBox="0 0 99 99">
  <defs>
    <style>
      .cls-1 {
        fill: #fff;
        fill-rule: evenodd;
        opacity: 0.85;
      }
    </style>
  </defs>
  <path id="play.svg" class="cls-1" d="M1190.75,2802a3.386,3.386,0,0,1-1.66,2.91h0l-24.71,14.6c-0.01,0-.02.01-0.03,0.01l-0.01.01h0a3.325,3.325,0,0,1-1.71.47,3.376,3.376,0,0,1-3.38-3.38h0v-29.25h0a3.374,3.374,0,0,1,3.38-3.37,3.325,3.325,0,0,1,1.71.47h0l0.01,0.01c0.01,0,.02.01,0.03,0.01l24.71,14.6h0A3.386,3.386,0,0,1,1190.75,2802Zm-20.26-50.01a49.5,49.5,0,1,1-49.49,49.5A49.5,49.5,0,0,1,1170.49,2751.99Zm0.24,5.14c24.92,0,45.12,19.86,45.12,44.36s-20.2,44.36-45.12,44.36-45.13-19.86-45.13-44.36S1145.8,2757.13,1170.73,2757.13Z" transform="translate(-1121 -2752)"/>
</svg>
