<svg xmlns="http://www.w3.org/2000/svg" width="25.062" height="24.781" viewBox="0 0 25.062 24.781">
  <defs>
    <style>
      .cls-1 {
        fill: #1275b9;
        fill-rule: evenodd;
      }
    </style>
  </defs>
  <path id="Settings1.svg" class="cls-1" d="M775.591,748.3a6.022,6.022,0,1,1,6.012-6.022A6.024,6.024,0,0,1,775.591,748.3Zm0-10.037a4.015,4.015,0,1,0,4.008,4.015A4.016,4.016,0,0,0,775.591,738.259ZM772.92,754.29a0.979,0.979,0,0,1-.221-0.025,12.54,12.54,0,0,1-5.026-2.418,1.006,1.006,0,0,1-.16-1.41l0.393-.493a11.039,11.039,0,0,1-1.8-2.261l-0.571.276a1,1,0,0,1-1.338-.464,12.444,12.444,0,0,1-1.25-5.441,1,1,0,0,1,1-1.006h0.623a10.856,10.856,0,0,1,.644-2.826l-0.57-.274a1,1,0,0,1-.47-1.339,12.653,12.653,0,0,1,3.462-4.367,1,1,0,0,1,1.409.154l0.394,0.491a11.052,11.052,0,0,1,2.6-1.263l-0.142-.616a1.006,1.006,0,0,1,.752-1.2,12.692,12.692,0,0,1,5.567-.017,1,1,0,0,1,.759,1.2l-0.137.617a11.014,11.014,0,0,1,2.61,1.25l0.392-.5a1,1,0,0,1,.67-0.374,0.98,0.98,0,0,1,.737.211,12.66,12.66,0,0,1,3.489,4.345,1,1,0,0,1-.461,1.343l-0.569.277a10.854,10.854,0,0,1,.662,2.833l0.614-.008a1,1,0,0,1,1.015,1,12.488,12.488,0,0,1-1.238,5.485,1.006,1.006,0,0,1-.572.511,0.994,0.994,0,0,1-.766-0.043l-0.572-.276a11.1,11.1,0,0,1-1.8,2.265l0.393,0.493a1,1,0,0,1-.158,1.411,12.538,12.538,0,0,1-5.02,2.426,1,1,0,0,1-1.2-.754l-0.14-.614a10.516,10.516,0,0,1-2.89,0l-0.138.614A1,1,0,0,1,772.92,754.29Zm-3.184-3.426a10.557,10.557,0,0,0,2.438,1.174l0.118-.523a1,1,0,0,1,1.2-.758,8.716,8.716,0,0,0,3.977,0,1,1,0,0,1,1.2.755l0.12,0.524a10.617,10.617,0,0,0,2.436-1.178l-0.333-.419a1,1,0,0,1,.156-1.41,9.04,9.04,0,0,0,2.476-3.117,1,1,0,0,1,1.338-.468l0.488,0.235a10.411,10.411,0,0,0,.6-2.671l-0.52.007a1.185,1.185,0,0,1-.716-0.288,1.009,1.009,0,0,1-.3-0.712,8.881,8.881,0,0,0-.908-3.895,1,1,0,0,1,.462-1.342l0.485-.237a10.693,10.693,0,0,0-1.7-2.11l-0.333.421a1,1,0,0,1-1.407.163,8.84,8.84,0,0,0-3.585-1.717,1,1,0,0,1-.758-1.2l0.116-.523a10.732,10.732,0,0,0-2.7.009l0.122,0.523a1,1,0,0,1-.752,1.2,8.948,8.948,0,0,0-3.576,1.733,1,1,0,0,1-1.408-.154l-0.335-.416a10.691,10.691,0,0,0-1.682,2.12l0.487,0.235a1,1,0,0,1,.469,1.338,8.89,8.89,0,0,0-.884,3.863,1.021,1.021,0,0,1-1,1.025H765a10.38,10.38,0,0,0,.605,2.642l0.486-.236a1,1,0,0,1,.766-0.046,1.006,1.006,0,0,1,.574.511,9.023,9.023,0,0,0,2.481,3.111,1.006,1.006,0,0,1,.159,1.411Z" transform="translate(-762.938 -729.5)"/>
</svg>
