<svg xmlns="http://www.w3.org/2000/svg" width="22.062" height="29.969" viewBox="0 0 22.062 29.969">
  <defs>
    <style>
      .cls-1 {
        fill: #1275b9;
        fill-rule: evenodd;
      }
    </style>
  </defs>
  <path id="Tablet.svg" class="cls-1" d="M461.266,756.975H448.735a4.872,4.872,0,0,1-4.771-4.958V731.944a4.872,4.872,0,0,1,4.771-4.958h12.531a4.873,4.873,0,0,1,4.772,4.958v20.073A4.873,4.873,0,0,1,461.266,756.975ZM448.735,729a2.9,2.9,0,0,0-2.836,2.948v20.073a2.9,2.9,0,0,0,2.836,2.948h12.531a2.9,2.9,0,0,0,2.837-2.948V731.944A2.9,2.9,0,0,0,461.266,729H448.735ZM455,753.818a1.006,1.006,0,1,1,.968-1A0.987,0.987,0,0,1,455,753.818Zm0.968-21.387h-1.935a1.006,1.006,0,0,1,0-2.011h1.935A1.006,1.006,0,0,1,455.969,732.431Z" transform="translate(-443.969 -727)"/>
</svg>
