<svg xmlns="http://www.w3.org/2000/svg" width="16" height="12.969" viewBox="0 0 16 12.969">
  <defs>
    <style>
      .cls-1 {
        fill: #393939;
        fill-rule: evenodd;
      }
    </style>
  </defs>
  <path id="twitter-icon.svg" class="cls-1" d="M1287.88,16.492a3.4,3.4,0,0,1,2.6,1.03,5.293,5.293,0,0,0,1.68-.567c0.14-.075.27-0.149,0.41-0.224a3.292,3.292,0,0,1-1.07,1.541,1.519,1.519,0,0,1-.36.255v0.008a6.2,6.2,0,0,0,1.86-.5v0.008a5.292,5.292,0,0,1-1.11,1.277c-0.17.136-.34,0.271-0.52,0.407a9.426,9.426,0,0,1-.15,2.108,9.175,9.175,0,0,1-6.43,7.258,9.814,9.814,0,0,1-4.64.192,11.887,11.887,0,0,1-1.93-.631,7.536,7.536,0,0,1-.93-0.479c-0.1-.059-0.19-0.117-0.29-0.176a5.416,5.416,0,0,0,1.05.04c0.32-.052.64-0.039,0.94-0.1a6.774,6.774,0,0,0,1.97-.711,3.59,3.59,0,0,0,.88-0.583,2.776,2.776,0,0,1-.97-0.175,3.293,3.293,0,0,1-2.08-2.1,3.24,3.24,0,0,0,1.46-.064,2.427,2.427,0,0,1-1.07-.431,3.161,3.161,0,0,1-1.55-2.811c0.11,0.053.23,0.106,0.34,0.159a3.449,3.449,0,0,0,.69.192,0.989,0.989,0,0,0,.45.04h-0.02c-0.17-.193-0.43-0.321-0.6-0.527a3.363,3.363,0,0,1-.74-2.978,4.161,4.161,0,0,1,.36-0.854s0.01,0.006.01,0.008a1.886,1.886,0,0,0,.3.343,6.034,6.034,0,0,0,.97.934,9.672,9.672,0,0,0,4.02,1.94,6.225,6.225,0,0,0,1.47.192,2.981,2.981,0,0,1,.02-1.541,3.224,3.224,0,0,1,1.85-2.2,4.173,4.173,0,0,1,.73-0.223Z" transform="translate(-1277 -16.5)"/>
</svg>
